<?xml version="1.0" encoding="UTF-8" standalone="no"?>
<!DOCTYPE svg PUBLIC "-//W3C//DTD SVG 1.1//EN" "http://www.w3.org/Graphics/SVG/1.1/DTD/svg11.dtd">
<svg width="100%" height="100%" viewBox="0 0 827 827" version="1.1" xmlns="http://www.w3.org/2000/svg" xmlns:xlink="http://www.w3.org/1999/xlink" xml:space="preserve" xmlns:serif="http://www.serif.com/" style="fill-rule:evenodd;clip-rule:evenodd;stroke-linejoin:round;stroke-miterlimit:2;">
    <g transform="matrix(1,0,0,1,-21742.9,-4699.07)">
        <g id="Página-ico" serif:id="Página ico" transform="matrix(4.16667,0,0,4.16667,21742.9,4699.07)">
            <rect x="0" y="0" width="198.425" height="198.425" style="fill:none;"/>
            <g id="Capa-1" serif:id="Capa 1">
                <rect x="0" y="0" width="198.425" height="198.425" style="fill:rgb(34,54,90);"/>
                <g transform="matrix(2.91069,0,0,2.62762,100.364,186.755)">
                    <path d="M0,-65.852C-3.509,-62.828 -23.377,-44.749 -23.377,-23.28C-23.377,-22.296 -23.333,-21.323 -23.257,-20.359C-22.099,-6.153 -10.387,0.317 0,0.317C10.39,0.317 22.095,-6.153 23.254,-20.362C23.332,-21.326 23.376,-22.296 23.376,-23.28C23.376,-44.749 3.508,-62.828 0,-65.852M0,1.988C-11.131,1.988 -23.675,-4.962 -24.922,-20.223C-25.004,-21.235 -25.048,-22.252 -25.048,-23.28C-25.048,-47.516 -0.77,-67.397 -0.524,-67.595C-0.217,-67.84 0.217,-67.84 0.524,-67.595C0.651,-67.493 7.167,-62.158 13.449,-53.691C19.351,-45.737 25.047,-35.019 25.047,-23.28C25.047,-22.252 25.003,-21.232 24.918,-20.223C23.675,-4.966 11.131,1.988 0,1.988" style="fill:white;fill-rule:nonzero;"/>
                </g>
                <g transform="matrix(2.91069,0,0,2.62762,100.364,185.683)">
                    <path d="M0,-65.057C-2.812,-60.814 -13.433,-43.411 -13.433,-22.871C-13.433,-18.276 -12.899,-13.502 -11.847,-8.691C-10.33,-1.741 -4.52,0.728 -0.003,0.728L0,0.728C4.517,0.728 10.326,-1.737 11.847,-8.691C12.898,-13.493 13.43,-18.267 13.43,-22.871C13.43,-43.411 2.811,-60.814 0,-65.057M0,2.399L-0.003,2.399C-5.544,2.396 -11.859,-0.92 -13.48,-8.332C-14.558,-13.264 -15.104,-18.154 -15.104,-22.871C-15.104,-46.983 -0.82,-66.831 -0.676,-67.03C-0.361,-67.456 0.361,-67.456 0.675,-67.03C0.819,-66.831 15.101,-46.983 15.101,-22.871C15.101,-18.144 14.554,-13.254 13.479,-8.332C11.859,-0.92 5.54,2.399 0,2.399" style="fill:white;fill-rule:nonzero;"/>
                </g>
                <g transform="matrix(2.91069,0,0,2.62762,100.364,8.65244)">
                    <path d="M0,69.769C-0.462,69.769 -0.836,69.395 -0.836,68.933L-0.836,0.836C-0.836,0.374 -0.462,0 0,0C0.462,0 0.835,0.374 0.835,0.836L0.835,68.933C0.835,69.395 0.462,69.769 0,69.769" style="fill:white;fill-rule:nonzero;"/>
                </g>
            </g>
        </g>
    </g>
</svg>
